# xmcd CD database file
#
# Track frame offsets:
#	150
#	13819
#	24299
#	40631
#	54714
#	68770
#	82660
#	93756
#	111919
#	126137
#
# Disc length: 1853 seconds
#
# Revision: 1
# Processed by: cddbd v1.5.1PL0 Copyright (c) Steve Scherf et al.
# Submitted via: CDex 1.51
#
DISCID=6f073b0a
DTITLE=Los Cardenales de Nuevo León - Boleros para Recordar
DYEAR=2003
DGENRE=Bolero
TTITLE0=La Novia Blanca
TTITLE1=Entrega Total
TTITLE2=Luz de Mi Alborada
TTITLE3=Que Esta Pasando
TTITLE4=Como Poderte Olvidar
TTITLE5=Disculpame
TTITLE6=Nunca Mas Podre Olvidarte
TTITLE7=Pobre del Pobre
TTITLE8=Amor Que Malo Eres
TTITLE9=Y Te Vas
EXTD=YEAR: 2003
EXTT0=
EXTT1=
EXTT2=
EXTT3=
EXTT4=
EXTT5=
EXTT6=
EXTT7=
EXTT8=
EXTT9=
PLAYORDER=
